<svg xmlns="http://www.w3.org/2000/svg" viewBox="0 0 780 430"><defs><linearGradient id="b" x1="0" y1="0" x2="1" y2="1"><stop stop-color="#0d3948"/><stop offset="1" stop-color="#09141e"/></linearGradient></defs><rect width="780" height="430" rx="24" fill="url(#b)"/><g stroke="#2bf7c8" stroke-width="5" opacity=".5"><path d="M70 80h180v90h140v90h310"/><path d="M80 345h130v-96h125"/><path d="M570 70v105H460v95"/><path d="M650 345H500v-70H370"/></g><g transform="translate(285 115)"><rect width="210" height="190" rx="24" fill="#121f2d" stroke="#8ea6ad" stroke-width="8"/><g fill="#8ea6ad"><rect x="-31" y="35" width="28" height="13" rx="3"/><rect x="-31" y="75" width="28" height="13" rx="3"/><rect x="-31" y="115" width="28" height="13" rx="3"/><rect x="213" y="35" width="28" height="13" rx="3"/><rect x="213" y="75" width="28" height="13" rx="3"/><rect x="213" y="115" width="28" height="13" rx="3"/></g><text x="105" y="108" font-family="monospace" font-size="34" text-anchor="middle" fill="#55f3ff">CPU</text></g><circle cx="390" cy="210" r="42" fill="#00668c"/><path d="M377 186l39 24-39 25z" fill="#fff"/></svg>
