<svg xmlns="http://www.w3.org/2000/svg" viewBox="0 0 780 430"><defs><linearGradient id="bg" x1="0" y1="0" x2="1" y2="1"><stop stop-color="#062032"/><stop offset="1" stop-color="#0f6d85"/></linearGradient><filter id="blur"><feGaussianBlur stdDeviation="5"/></filter></defs><rect width="780" height="430" rx="24" fill="url(#bg)"/><g opacity=".5" filter="url(#blur)"><circle cx="160" cy="116" r="38" fill="#ffc957"/><circle cx="375" cy="208" r="52" fill="#58f0ff"/><circle cx="615" cy="105" r="31" fill="#ff7c2b"/></g><rect x="150" y="230" width="485" height="85" rx="16" fill="#f7f4e8"/><g stroke="#152c35" stroke-width="8"><path d="M205 230v-70h110v70" fill="none"/><path d="M477 230v-70h110v70" fill="none"/><path d="M315 166h162"/></g><g fill="#ffdf63" stroke="#222" stroke-width="6"><rect x="220" y="110" width="70" height="50" rx="15"/><rect x="502" y="110" width="70" height="50" rx="15"/></g><g stroke="#ff6f2a" stroke-width="10" fill="none"><path d="M228 251h-75V96h104"/><path d="M555 251h72V92H524"/></g><circle cx="393" cy="270" r="35" fill="#0077a3"/><path d="M382 250l33 20-33 21z" fill="#fff"/></svg>
