<svg xmlns="http://www.w3.org/2000/svg" viewBox="0 0 780 430"><defs><linearGradient id="b" x1="0" y1="0" x2="1" y2="1"><stop stop-color="#39140e"/><stop offset="1" stop-color="#d95b2a"/></linearGradient></defs><rect width="780" height="430" rx="24" fill="url(#b)"/><path d="M0 330c120-55 250-65 385-18s270 44 395-14v132H0z" fill="#a74224"/><g fill="#7e2f20" opacity=".6"><circle cx="90" cy="328" r="16"/><circle cx="690" cy="318" r="22"/><circle cx="530" cy="355" r="14"/></g><g transform="translate(245 125)"><rect x="85" y="50" width="230" height="118" rx="24" fill="#6e8794" stroke="#263946" stroke-width="8"/><rect x="125" y="80" width="150" height="48" rx="14" fill="#16313d"/><circle cx="155" cy="104" r="12" fill="#69f6ff"/><circle cx="235" cy="104" r="12" fill="#69f6ff"/><rect x="150" y="-4" width="102" height="64" rx="18" fill="#8da3ad" stroke="#263946" stroke-width="8"/><rect x="174" y="14" width="54" height="18" rx="8" fill="#69f6ff"/><g fill="#15232b" stroke="#8da3ad" stroke-width="8"><circle cx="92" cy="188" r="38"/><circle cx="190" cy="188" r="38"/><circle cx="288" cy="188" r="38"/></g></g></svg>
